<?xml version="1.0" encoding="UTF-8"?>
<!DOCTYPE svg PUBLIC "-//W3C//DTD SVG 1.1//EN" "http://www.w3.org/Graphics/SVG/1.1/DTD/svg11.dtd">
<svg xmlns="http://www.w3.org/2000/svg" version="1.1" width="4496px" height="4307px" style="shape-rendering:geometricPrecision; text-rendering:geometricPrecision; image-rendering:optimizeQuality; fill-rule:evenodd; clip-rule:evenodd" xmlns:xlink="http://www.w3.org/1999/xlink">
<g><path style="opacity:0.934" fill="#221e1f" d="M 2181.5,-0.5 C 2225.5,-0.5 2269.5,-0.5 2313.5,-0.5C 2711.73,11.6296 3082.73,117.796 3426.5,318C 3730.32,498.402 3978.15,737.235 4170,1034.5C 4373.16,1356.5 4481.66,1708.17 4495.5,2089.5C 4495.5,2131.83 4495.5,2174.17 4495.5,2216.5C 4476.72,2675.79 4326.89,3085.79 4046,3446.5C 3798.93,3756.49 3491.76,3986.66 3124.5,4137C 2860.03,4243.26 2585.37,4299.76 2300.5,4306.5C 2265.5,4306.5 2230.5,4306.5 2195.5,4306.5C 1793.43,4296.49 1418.76,4190.66 1071.5,3989C 756.853,3803.02 502.687,3554.86 309,3244.5C 111.108,2920.28 7.94139,2567.95 -0.5,2187.5C -0.5,2164.17 -0.5,2140.83 -0.5,2117.5C 12.1663,1655.27 158,1241.27 437,875.5C 659.299,590.324 933.799,370.824 1260.5,217C 1552.61,81.6766 1859.61,9.17662 2181.5,-0.5 Z"/></g>
<g><path style="opacity:1" fill="#0b0e17" d="M 2203.5,7.5 C 2532.77,2.41522 2849.1,63.2486 3152.5,190C 3528.14,350.311 3837.97,594.144 4082,921.5C 4338.98,1274.75 4473.98,1670.75 4487,2109.5C 4492.15,2575.66 4359.48,2997.33 4089,3374.5C 3882.67,3655.55 3625.5,3876.72 3317.5,4038C 2959.5,4221.75 2579.17,4308.09 2176.5,4297C 1728.77,4281.88 1319.77,4149.88 949.5,3901C 652.078,3696.95 418.244,3436.45 248,3119.5C 62.2883,2763.61 -15.3783,2385.28 15,1984.5C 47.1209,1616.75 166.788,1281.09 374,977.5C 562.688,706.123 799.188,486.957 1083.5,320C 1394.17,140.315 1728.84,37.9813 2087.5,13C 2126.3,10.63 2164.97,8.79663 2203.5,7.5 Z"/></g>
<g><path style="opacity:1" fill="#008494" d="M 1904.5,286.5 C 1893.28,332.309 1894.12,377.975 1907,423.5C 1911.15,437.774 1915.98,451.774 1921.5,465.5C 1926.16,484.137 1931.82,502.47 1938.5,520.5C 1937.83,796.5 1937.17,1072.5 1936.5,1348.5C 1895.59,1277.35 1860.59,1203.35 1831.5,1126.5C 1832.83,884.5 1832.83,642.5 1831.5,400.5C 1834.31,393.55 1837.64,386.883 1841.5,380.5C 1857.91,348.664 1877.08,318.664 1899,290.5C 1900.45,288.536 1902.28,287.203 1904.5,286.5 Z"/></g>
<g><path style="opacity:1" fill="#55bdbf" d="M 1904.5,286.5 C 1902.28,287.203 1900.45,288.536 1899,290.5C 1877.08,318.664 1857.91,348.664 1841.5,380.5C 1840.5,380.586 1839.67,380.252 1839,379.5C 1830.95,366.057 1823.45,352.39 1816.5,338.5C 1843.87,318.185 1872.87,300.185 1903.5,284.5C 1904.3,284.957 1904.63,285.624 1904.5,286.5 Z"/></g>
<g><path style="opacity:1" fill="#44b5b8" d="M 1816.5,338.5 C 1823.45,352.39 1830.95,366.057 1839,379.5C 1839.67,380.252 1840.5,380.586 1841.5,380.5C 1837.64,386.883 1834.31,393.55 1831.5,400.5C 1821.77,419.97 1813.1,439.97 1805.5,460.5C 1803.57,459.358 1802.07,457.692 1801,455.5C 1787.22,431.607 1773.72,407.607 1760.5,383.5C 1778.07,367.06 1796.74,352.06 1816.5,338.5 Z"/></g>
<g><path style="opacity:1" fill="#008292" d="M 1831.5,400.5 C 1832.83,642.5 1832.83,884.5 1831.5,1126.5C 1816.94,1086.9 1803.94,1046.9 1792.5,1006.5C 1777.65,949.17 1766.98,891.17 1760.5,832.5C 1757.32,795.578 1755.98,758.578 1756.5,721.5C 1757.42,693.749 1759.42,666.082 1762.5,638.5C 1767.19,602.052 1774.19,566.052 1783.5,530.5C 1789.6,506.786 1796.93,483.453 1805.5,460.5C 1813.1,439.97 1821.77,419.97 1831.5,400.5 Z"/></g>
<g><path style="opacity:1" fill="#36adb3" d="M 1760.5,383.5 C 1773.72,407.607 1787.22,431.607 1801,455.5C 1802.07,457.692 1803.57,459.358 1805.5,460.5C 1796.93,483.453 1789.6,506.786 1783.5,530.5C 1761.81,495.117 1741.14,459.117 1721.5,422.5C 1733.5,408.5 1746.5,395.5 1760.5,383.5 Z"/></g>
<g><path style="opacity:1" fill="#25a5ac" d="M 1721.5,422.5 C 1741.14,459.117 1761.81,495.117 1783.5,530.5C 1774.19,566.052 1767.19,602.052 1762.5,638.5C 1731.93,586.366 1701.6,534.032 1671.5,481.5C 1686.69,460.634 1703.36,440.968 1721.5,422.5 Z"/></g>
<g><path style="opacity:1" fill="#008091" d="M 1921.5,465.5 C 1942.11,510.743 1968.28,552.41 2000,590.5C 2010.17,602.198 2020.34,613.865 2030.5,625.5C 2029.96,625.56 2029.62,625.893 2029.5,626.5C 2239.11,989.392 2448.44,1352.39 2657.5,1715.5C 2608.96,1668.3 2562.96,1618.97 2519.5,1567.5C 2520.04,1567.44 2520.38,1567.11 2520.5,1566.5C 2340.2,1253.7 2159.7,941.037 1979,628.5C 1978.54,629.094 1978.37,629.761 1978.5,630.5C 1964.2,594.28 1950.87,557.613 1938.5,520.5C 1931.82,502.47 1926.16,484.137 1921.5,465.5 Z"/></g>
<g><path style="opacity:1" fill="#189ea7" d="M 1671.5,481.5 C 1701.6,534.032 1731.93,586.366 1762.5,638.5C 1759.42,666.082 1757.42,693.749 1756.5,721.5C 1717.47,656.117 1679.47,590.117 1642.5,523.5C 1651.18,508.795 1660.85,494.795 1671.5,481.5 Z"/></g>
<g><path style="opacity:1" fill="#008796" d="M 1938.5,520.5 C 1950.87,557.613 1964.2,594.28 1978.5,630.5C 1997.98,681.924 2018.65,732.924 2040.5,783.5C 2039.67,1025.67 2039.17,1268 2039,1510.5C 2002.57,1457.99 1968.41,1403.99 1936.5,1348.5C 1937.17,1072.5 1937.83,796.5 1938.5,520.5 Z"/></g>
<g><path style="opacity:1" fill="#0e99a3" d="M 1642.5,523.5 C 1679.47,590.117 1717.47,656.117 1756.5,721.5C 1755.98,758.578 1757.32,795.578 1760.5,832.5C 1760.92,838.513 1759.42,838.846 1756,833.5C 1708.67,751.5 1661.33,669.5 1614,587.5C 1612.26,584.691 1611.09,581.691 1610.5,578.5C 1619.92,559.312 1630.59,540.978 1642.5,523.5 Z"/></g>
<g><path style="opacity:1" fill="#01919d" d="M 1610.5,578.5 C 1611.09,581.691 1612.26,584.691 1614,587.5C 1661.33,669.5 1708.67,751.5 1756,833.5C 1759.42,838.846 1760.92,838.513 1760.5,832.5C 1766.98,891.17 1777.65,949.17 1792.5,1006.5C 1792.61,1008.38 1792.11,1008.71 1791,1007.5C 1720.89,886.275 1651.06,764.942 1581.5,643.5C 1589.83,621.172 1599.49,599.505 1610.5,578.5 Z"/></g>
<g><path style="opacity:1" fill="#008594" d="M 2030.5,625.5 C 2049.83,645.5 2069.5,665.167 2089.5,684.5C 2088.47,684.897 2088.31,685.563 2089,686.5C 2288.4,1030.91 2487.4,1375.57 2686,1720.5C 2687.1,1722.38 2688.44,1724.05 2690,1725.5C 2696.77,1722.86 2703.27,1719.86 2709.5,1716.5C 2714.98,1713.93 2720.65,1711.6 2726.5,1709.5C 2803,1710.5 2879.66,1710.83 2956.5,1710.5C 2956.2,1713.06 2956.53,1715.39 2957.5,1717.5C 2958.79,1740.65 2958.79,1763.65 2957.5,1786.5C 2957.5,1775.83 2957.5,1765.17 2957.5,1754.5C 2871,1754.17 2784.67,1754.5 2698.5,1755.5C 2691.07,1747.73 2683.07,1740.73 2674.5,1734.5C 2669.23,1727.89 2663.56,1721.56 2657.5,1715.5C 2448.44,1352.39 2239.11,989.392 2029.5,626.5C 2029.62,625.893 2029.96,625.56 2030.5,625.5 Z"/></g>
<g><path style="opacity:1" fill="#008c99" d="M 1581.5,643.5 C 1651.06,764.942 1720.89,886.275 1791,1007.5C 1792.11,1008.71 1792.61,1008.38 1792.5,1006.5C 1803.94,1046.9 1816.94,1086.9 1831.5,1126.5C 1860.59,1203.35 1895.59,1277.35 1936.5,1348.5C 1968.41,1403.99 2002.57,1457.99 2039,1510.5C 2039.17,1268 2039.67,1025.67 2040.5,783.5C 2101.64,924.451 2171.64,1060.45 2250.5,1191.5C 2249.5,1385.33 2249.17,1579.33 2249.5,1773.5C 2192.67,1732.59 2135.67,1691.92 2078.5,1651.5C 1903.66,1347.8 1728.32,1044.47 1552.5,741.5C 1559.08,707.853 1568.74,675.186 1581.5,643.5 Z"/></g>
<g><path style="opacity:1" fill="#008796" d="M 2089.5,684.5 C 2106.19,699.529 2122.86,714.529 2139.5,729.5C 2138.96,729.56 2138.62,729.893 2138.5,730.5C 2327.53,1057.7 2516.37,1385.04 2705,1712.5C 2705.88,1714.64 2707.38,1715.97 2709.5,1716.5C 2703.27,1719.86 2696.77,1722.86 2690,1725.5C 2688.44,1724.05 2687.1,1722.38 2686,1720.5C 2487.4,1375.57 2288.4,1030.91 2089,686.5C 2088.31,685.563 2088.47,684.897 2089.5,684.5 Z"/></g>
<g><path style="opacity:1" fill="#008c99" d="M 2139.5,729.5 C 2167.17,752.173 2194.84,774.84 2222.5,797.5C 2221.96,797.56 2221.62,797.893 2221.5,798.5C 2395.2,1099.04 2568.7,1399.7 2742,1700.5C 2742.67,1701.25 2743.5,1701.59 2744.5,1701.5C 2738.66,1704.34 2732.66,1707.01 2726.5,1709.5C 2720.65,1711.6 2714.98,1713.93 2709.5,1716.5C 2707.38,1715.97 2705.88,1714.64 2705,1712.5C 2516.37,1385.04 2327.53,1057.7 2138.5,730.5C 2138.62,729.893 2138.96,729.56 2139.5,729.5 Z"/></g>
<g><path style="opacity:1" fill="#008796" d="M 1552.5,741.5 C 1728.32,1044.47 1903.66,1347.8 2078.5,1651.5C 2054.3,1635.57 2030.63,1618.9 2007.5,1601.5C 1853.28,1333.39 1698.78,1065.39 1544,797.5C 1543.51,796.207 1543.34,794.873 1543.5,793.5C 1545.22,775.821 1548.22,758.488 1552.5,741.5 Z"/></g>
<g><path style="opacity:1" fill="#007c8e" d="M 2519.5,1567.5 C 2514.84,1561.51 2509.84,1555.84 2504.5,1550.5C 2484.88,1525.71 2465.05,1501.04 2445,1476.5C 2433.3,1460.65 2421.47,1444.98 2409.5,1429.5C 2352.58,1352.89 2299.58,1273.56 2250.5,1191.5C 2171.64,1060.45 2101.64,924.451 2040.5,783.5C 2018.65,732.924 1997.98,681.924 1978.5,630.5C 1978.37,629.761 1978.54,629.094 1979,628.5C 2159.7,941.037 2340.2,1253.7 2520.5,1566.5C 2520.38,1567.11 2520.04,1567.44 2519.5,1567.5 Z"/></g>
<g><path style="opacity:1" fill="#008494" d="M 1543.5,793.5 C 1543.34,794.873 1543.51,796.207 1544,797.5C 1698.78,1065.39 1853.28,1333.39 2007.5,1601.5C 1982.91,1584.57 1958.91,1566.91 1935.5,1548.5C 1803.61,1319.06 1671.44,1089.72 1539,860.5C 1538.5,857.183 1538.33,853.85 1538.5,850.5C 1538.58,831.217 1540.25,812.217 1543.5,793.5 Z"/></g>
<g><path style="opacity:1" fill="#00929e" d="M 2222.5,797.5 C 2259.24,826.912 2296.24,855.912 2333.5,884.5C 2332.54,885.721 2332.7,887.054 2334,888.5C 2486,1151.83 2638,1415.17 2790,1678.5C 2791.07,1680.69 2792.57,1682.36 2794.5,1683.5C 2777.87,1689.48 2761.2,1695.48 2744.5,1701.5C 2743.5,1701.59 2742.67,1701.25 2742,1700.5C 2568.7,1399.7 2395.2,1099.04 2221.5,798.5C 2221.62,797.893 2221.96,797.56 2222.5,797.5 Z"/></g>
<g><path style="opacity:1" fill="#008091" d="M 1538.5,850.5 C 1538.33,853.85 1538.5,857.183 1539,860.5C 1671.44,1089.72 1803.61,1319.06 1935.5,1548.5C 1886.12,1511.47 1839.12,1471.47 1794.5,1428.5C 1712.92,1285.67 1630.59,1143.33 1547.5,1001.5C 1539.13,951.35 1536.13,901.016 1538.5,850.5 Z"/></g>
<g><path style="opacity:1" fill="#0096a1" d="M 2333.5,884.5 C 2342.48,890.815 2351.14,897.481 2359.5,904.5C 2358.96,904.56 2358.62,904.893 2358.5,905.5C 2507.17,1163.17 2655.83,1420.83 2804.5,1678.5C 2805.32,1679.39 2806.32,1679.72 2807.5,1679.5C 2803.38,1681.2 2799.05,1682.54 2794.5,1683.5C 2792.57,1682.36 2791.07,1680.69 2790,1678.5C 2638,1415.17 2486,1151.83 2334,888.5C 2332.7,887.054 2332.54,885.721 2333.5,884.5 Z"/></g>
<g><path style="opacity:1" fill="#0099a5" d="M 2359.5,904.5 C 2401.76,935.765 2443.43,967.765 2484.5,1000.5C 2611.78,1221.76 2739.44,1442.76 2867.5,1663.5C 2847.52,1668.5 2827.52,1673.83 2807.5,1679.5C 2806.32,1679.72 2805.32,1679.39 2804.5,1678.5C 2655.83,1420.83 2507.17,1163.17 2358.5,905.5C 2358.62,904.893 2358.96,904.56 2359.5,904.5 Z"/></g>
<g><path style="opacity:1" fill="#007c8e" d="M 1547.5,1001.5 C 1630.59,1143.33 1712.92,1285.67 1794.5,1428.5C 1729.55,1368.16 1674.38,1300.16 1629,1224.5C 1588.92,1154.98 1561.75,1080.65 1547.5,1001.5 Z"/></g>
<g><path style="opacity:1" fill="#009faa" d="M 2484.5,1000.5 C 2506.62,1017.07 2528.62,1033.91 2550.5,1051C 2574.65,1069.99 2598.31,1089.49 2621.5,1109.5C 2724,1289.79 2827.67,1469.79 2932.5,1649.5C 2910.87,1653.89 2889.2,1658.56 2867.5,1663.5C 2739.44,1442.76 2611.78,1221.76 2484.5,1000.5 Z"/></g>
<g><path style="opacity:1" fill="#00a5b0" d="M 2621.5,1109.5 C 2690.69,1164.52 2753.52,1226.19 2810,1294.5C 2891.37,1397.99 2938.54,1515.65 2951.5,1647.5C 2945.13,1647.84 2938.8,1648.51 2932.5,1649.5C 2827.67,1469.79 2724,1289.79 2621.5,1109.5 Z"/></g>
<g><path style="opacity:1" fill="#00919e" d="M 2250.5,1191.5 C 2299.58,1273.56 2352.58,1352.89 2409.5,1429.5C 2408.5,1588.67 2408.17,1748 2408.5,1907.5C 2357.82,1859.8 2304.82,1815.13 2249.5,1773.5C 2249.17,1579.33 2249.5,1385.33 2250.5,1191.5 Z"/></g>
<g><path style="opacity:1" fill="#fcbe08" d="M 1660.5,1392.5 C 1660.5,1499.17 1660.5,1605.83 1660.5,1712.5C 1652.14,1713.65 1643.81,1714.98 1635.5,1716.5C 1635.83,1612 1635.5,1507.67 1634.5,1403.5C 1636.76,1392.79 1640.09,1382.46 1644.5,1372.5C 1650.26,1378.92 1655.59,1385.58 1660.5,1392.5 Z"/></g>
<g><path style="opacity:1" fill="#fcb80a" d="M 1660.5,1392.5 C 1669.18,1401.85 1677.51,1411.51 1685.5,1421.5C 1685.5,1517.17 1685.5,1612.83 1685.5,1708.5C 1677.12,1709.31 1668.78,1710.64 1660.5,1712.5C 1660.5,1605.83 1660.5,1499.17 1660.5,1392.5 Z"/></g>
<g><path style="opacity:1" fill="#fdc207" d="M 1634.5,1403.5 C 1635.5,1507.67 1635.83,1612 1635.5,1716.5C 1629.17,1717.83 1622.84,1719.17 1616.5,1720.5C 1616.83,1641 1616.5,1561.66 1615.5,1482.5C 1620.42,1455.8 1626.76,1429.47 1634.5,1403.5 Z"/></g>
<g><path style="opacity:1" fill="#fbb10c" d="M 1685.5,1421.5 C 1695.88,1431.54 1705.54,1442.21 1714.5,1453.5C 1714.5,1537.5 1714.5,1621.5 1714.5,1705.5C 1709.63,1705.69 1704.96,1706.36 1700.5,1707.5C 1695.49,1707.75 1690.49,1708.08 1685.5,1708.5C 1685.5,1612.83 1685.5,1517.17 1685.5,1421.5 Z"/></g>
<g><path style="opacity:1" fill="#0096a5" d="M 2409.5,1429.5 C 2421.47,1444.98 2433.3,1460.65 2445,1476.5C 2465.05,1501.04 2484.88,1525.71 2504.5,1550.5C 2503.17,1662.17 2503.17,1773.83 2504.5,1885.5C 2503.83,1887.17 2503.17,1888.83 2502.5,1890.5C 2492.96,1904.92 2484.96,1920.25 2478.5,1936.5C 2474.57,1945.61 2471.24,1954.95 2468.5,1964.5C 2467.6,1965.29 2466.93,1966.29 2466.5,1967.5C 2447.56,1947.22 2428.22,1927.22 2408.5,1907.5C 2408.17,1748 2408.5,1588.67 2409.5,1429.5 Z"/></g>
<g><path style="opacity:1" fill="#faab0e" d="M 1714.5,1453.5 C 1722.82,1462.12 1731.16,1470.79 1739.5,1479.5C 1739.5,1554.17 1739.5,1628.83 1739.5,1703.5C 1731.16,1704.12 1722.83,1704.79 1714.5,1705.5C 1714.5,1621.5 1714.5,1537.5 1714.5,1453.5 Z"/></g>
<g><path style="opacity:1" fill="#f9a510" d="M 1739.5,1479.5 C 1748.17,1487.5 1756.5,1495.83 1764.5,1504.5C 1764.5,1570.5 1764.5,1636.5 1764.5,1702.5C 1760.63,1702.19 1756.96,1702.52 1753.5,1703.5C 1748.83,1703.5 1744.17,1703.5 1739.5,1703.5C 1739.5,1628.83 1739.5,1554.17 1739.5,1479.5 Z"/></g>
<g><path style="opacity:1" fill="#f89f12" d="M 1764.5,1504.5 C 1773.19,1512.86 1781.86,1521.19 1790.5,1529.5C 1790.5,1587.17 1790.5,1644.83 1790.5,1702.5C 1781.83,1702.5 1773.17,1702.5 1764.5,1702.5C 1764.5,1636.5 1764.5,1570.5 1764.5,1504.5 Z"/></g>
<g><path style="opacity:1" fill="#fac506" d="M 1615.5,1482.5 C 1616.5,1561.66 1616.83,1641 1616.5,1720.5C 1609.83,1722.17 1603.17,1723.83 1596.5,1725.5C 1592.5,1643.81 1598.83,1562.81 1615.5,1482.5 Z"/></g>
<g><path style="opacity:1" fill="#f89814" d="M 1790.5,1529.5 C 1800.53,1538.53 1810.53,1547.53 1820.5,1556.5C 1820.5,1605.5 1820.5,1654.5 1820.5,1703.5C 1810.48,1703.63 1800.48,1703.3 1790.5,1702.5C 1790.5,1644.83 1790.5,1587.17 1790.5,1529.5 Z"/></g>
<g><path style="opacity:1" fill="#009aab" d="M 2504.5,1550.5 C 2509.84,1555.84 2514.84,1561.51 2519.5,1567.5C 2562.96,1618.97 2608.96,1668.3 2657.5,1715.5C 2663.56,1721.56 2669.23,1727.89 2674.5,1734.5C 2640.39,1751.88 2609.05,1773.21 2580.5,1798.5C 2563.44,1811.89 2548.44,1827.23 2535.5,1844.5C 2524.01,1857.32 2513.68,1870.98 2504.5,1885.5C 2503.17,1773.83 2503.17,1662.17 2504.5,1550.5 Z"/></g>
<g><path style="opacity:1" fill="#f79216" d="M 1820.5,1556.5 C 1828.86,1563.86 1837.19,1571.2 1845.5,1578.5C 1845.5,1620.83 1845.5,1663.17 1845.5,1705.5C 1841.45,1705.61 1837.45,1705.27 1833.5,1704.5C 1829.16,1704.26 1824.82,1703.93 1820.5,1703.5C 1820.5,1654.5 1820.5,1605.5 1820.5,1556.5 Z"/></g>
<g><path style="opacity:1" fill="#f68c18" d="M 1845.5,1578.5 C 1854.49,1585.49 1863.15,1592.82 1871.5,1600.5C 1870.5,1636 1870.17,1671.66 1870.5,1707.5C 1869.17,1707.5 1867.83,1707.5 1866.5,1707.5C 1859.44,1707.29 1852.44,1706.63 1845.5,1705.5C 1845.5,1663.17 1845.5,1620.83 1845.5,1578.5 Z"/></g>
<g><path style="opacity:1" fill="#f5861a" d="M 1871.5,1600.5 C 1880.08,1606.08 1888.08,1612.41 1895.5,1619.5C 1896.16,1650.52 1895.49,1681.18 1893.5,1711.5C 1884.31,1710.52 1875.31,1709.19 1866.5,1707.5C 1867.83,1707.5 1869.17,1707.5 1870.5,1707.5C 1870.17,1671.66 1870.5,1636 1871.5,1600.5 Z"/></g>
<g><path style="opacity:1" fill="#f47f1c" d="M 1895.5,1619.5 C 1905.38,1626.6 1915.05,1633.94 1924.5,1641.5C 1925.16,1666.86 1924.49,1691.86 1922.5,1716.5C 1919.48,1716.3 1916.48,1715.96 1913.5,1715.5C 1906.86,1714.04 1900.19,1712.7 1893.5,1711.5C 1895.49,1681.18 1896.16,1650.52 1895.5,1619.5 Z"/></g>
<g><path style="opacity:1" fill="#f3791d" d="M 1924.5,1641.5 C 1933.14,1647.48 1941.47,1653.81 1949.5,1660.5C 1949.5,1681.17 1949.5,1701.83 1949.5,1722.5C 1940.3,1721 1931.3,1719 1922.5,1716.5C 1924.49,1691.86 1925.16,1666.86 1924.5,1641.5 Z"/></g>
<g><path style="opacity:1" fill="#008090" d="M 2951.5,1647.5 C 2954.76,1670.68 2956.76,1694.01 2957.5,1717.5C 2956.53,1715.39 2956.2,1713.06 2956.5,1710.5C 2879.66,1710.83 2803,1710.5 2726.5,1709.5C 2732.66,1707.01 2738.66,1704.34 2744.5,1701.5C 2761.2,1695.48 2777.87,1689.48 2794.5,1683.5C 2799.05,1682.54 2803.38,1681.2 2807.5,1679.5C 2827.52,1673.83 2847.52,1668.5 2867.5,1663.5C 2889.2,1658.56 2910.87,1653.89 2932.5,1649.5C 2938.8,1648.51 2945.13,1647.84 2951.5,1647.5 Z"/></g>
<g><path style="opacity:1" fill="#f26d20" d="M 1949.5,1660.5 C 1988.84,1687.84 2028.18,1715.17 2067.5,1742.5C 2067.21,1749.26 2067.54,1755.92 2068.5,1762.5C 2065.59,1761.21 2062.59,1760.21 2059.5,1759.5C 2051.55,1755.36 2043.22,1752.03 2034.5,1749.5C 2027.34,1745.67 2019.67,1743 2011.5,1741.5C 2000.83,1737.41 1989.83,1734.08 1978.5,1731.5C 1978.83,1852.33 1978.5,1973 1977.5,2093.5C 1973.5,2089.17 1969.5,2084.83 1965.5,2080.5C 1955.51,2068.51 1945.18,2056.84 1934.5,2045.5C 1927.17,2037.17 1919.83,2028.83 1912.5,2020.5C 1913.5,1919 1913.83,1817.33 1913.5,1715.5C 1916.48,1715.96 1919.48,1716.3 1922.5,1716.5C 1931.3,1719 1940.3,1721 1949.5,1722.5C 1949.5,1701.83 1949.5,1681.17 1949.5,1660.5 Z"/></g>
<g><path style="opacity:1" fill="#f05a22" d="M 1739.5,1703.5 C 1744.17,1703.5 1748.83,1703.5 1753.5,1703.5C 1758.5,1703.5 1763.5,1703.5 1768.5,1703.5C 1768.67,1760.83 1768.5,1818.17 1768,1875.5C 1754.32,1862.98 1740.48,1850.65 1726.5,1838.5C 1725.83,1845.32 1725.17,1851.99 1724.5,1858.5C 1711.87,1843.87 1698.87,1829.53 1685.5,1815.5C 1681.46,1811.46 1677.79,1807.13 1674.5,1802.5C 1675.32,1799.69 1675.82,1796.69 1676,1793.5C 1684.38,1801.22 1693.05,1808.55 1702,1815.5C 1702.17,1797.5 1702.33,1779.5 1702.5,1761.5C 1702.5,1743.15 1701.83,1725.15 1700.5,1707.5C 1704.96,1706.36 1709.63,1705.69 1714.5,1705.5C 1722.83,1704.79 1731.16,1704.12 1739.5,1703.5 Z"/></g>
<g><path style="opacity:1" fill="#f16021" d="M 1753.5,1703.5 C 1756.96,1702.52 1760.63,1702.19 1764.5,1702.5C 1773.17,1702.5 1781.83,1702.5 1790.5,1702.5C 1800.48,1703.3 1810.48,1703.63 1820.5,1703.5C 1824.82,1703.93 1829.16,1704.26 1833.5,1704.5C 1834.83,1743.62 1835.49,1782.96 1835.5,1822.5C 1835.17,1861.5 1834.83,1900.5 1834.5,1939.5C 1815.15,1920.98 1795.65,1902.65 1776,1884.5C 1775.83,1895.67 1775.33,1906.67 1774.5,1917.5C 1762.54,1902.87 1750.21,1888.54 1737.5,1874.5C 1733.17,1869.17 1728.83,1863.83 1724.5,1858.5C 1725.17,1851.99 1725.83,1845.32 1726.5,1838.5C 1740.48,1850.65 1754.32,1862.98 1768,1875.5C 1768.5,1818.17 1768.67,1760.83 1768.5,1703.5C 1763.5,1703.5 1758.5,1703.5 1753.5,1703.5 Z"/></g>
<g><path style="opacity:1" fill="#f26721" d="M 1833.5,1704.5 C 1837.45,1705.27 1841.45,1705.61 1845.5,1705.5C 1852.44,1706.63 1859.44,1707.29 1866.5,1707.5C 1875.31,1709.19 1884.31,1710.52 1893.5,1711.5C 1900.19,1712.7 1906.86,1714.04 1913.5,1715.5C 1913.83,1817.33 1913.5,1919 1912.5,2020.5C 1911.5,2018.83 1910.17,2017.5 1908.5,2016.5C 1900.56,2006.89 1891.89,1997.89 1882.5,1989.5C 1867.15,1972.32 1850.98,1955.98 1834,1940.5C 1833.83,1958 1833.33,1975.34 1832.5,1992.5C 1827.85,1985.85 1822.85,1979.52 1817.5,1973.5C 1805.85,1957.86 1793.85,1942.52 1781.5,1927.5C 1779.17,1924.17 1776.83,1920.83 1774.5,1917.5C 1775.33,1906.67 1775.83,1895.67 1776,1884.5C 1795.65,1902.65 1815.15,1920.98 1834.5,1939.5C 1834.83,1900.5 1835.17,1861.5 1835.5,1822.5C 1835.49,1782.96 1834.83,1743.62 1833.5,1704.5 Z"/></g>
<g><path style="opacity:1" fill="#f05422" d="M 1700.5,1707.5 C 1701.83,1725.15 1702.5,1743.15 1702.5,1761.5C 1702.33,1779.5 1702.17,1797.5 1702,1815.5C 1693.05,1808.55 1684.38,1801.22 1676,1793.5C 1675.82,1796.69 1675.32,1799.69 1674.5,1802.5C 1649.47,1776.13 1623.47,1750.8 1596.5,1726.5C 1596.5,1726.17 1596.5,1725.83 1596.5,1725.5C 1603.17,1723.83 1609.83,1722.17 1616.5,1720.5C 1622.84,1719.17 1629.17,1717.83 1635.5,1716.5C 1643.81,1714.98 1652.14,1713.65 1660.5,1712.5C 1668.78,1710.64 1677.12,1709.31 1685.5,1708.5C 1690.49,1708.08 1695.49,1707.75 1700.5,1707.5 Z"/></g>
<g><path style="opacity:1" fill="#f27222" d="M 2011.5,1741.5 C 2011.83,1872.33 2011.5,2003 2010.5,2133.5C 2004.18,2125.18 1997.51,2117.18 1990.5,2109.5C 1986.17,2104.17 1981.83,2098.83 1977.5,2093.5C 1978.5,1973 1978.83,1852.33 1978.5,1731.5C 1989.83,1734.08 2000.83,1737.41 2011.5,1741.5 Z"/></g>
<g><path style="opacity:1" fill="#f37523" d="M 2011.5,1741.5 C 2019.67,1743 2027.34,1745.67 2034.5,1749.5C 2033.83,1886.5 2033.17,2023.5 2032.5,2160.5C 2027.5,2154.5 2022.5,2148.5 2017.5,2142.5C 2015.55,2139.21 2013.22,2136.21 2010.5,2133.5C 2011.5,2003 2011.83,1872.33 2011.5,1741.5 Z"/></g>
<g><path style="opacity:1" fill="#ed5d21" d="M 2067.5,1742.5 C 2110.04,1769.94 2151.71,1798.6 2192.5,1828.5C 2186.03,1825.1 2179.7,1821.43 2173.5,1817.5C 2167.2,1813.01 2160.53,1809.01 2153.5,1805.5C 2133.08,1792.96 2111.75,1781.96 2089.5,1772.5C 2082.74,1768.8 2075.74,1765.46 2068.5,1762.5C 2067.54,1755.92 2067.21,1749.26 2067.5,1742.5 Z"/></g>
<g><path style="opacity:1" fill="#f37724" d="M 2034.5,1749.5 C 2043.22,1752.03 2051.55,1755.36 2059.5,1759.5C 2058.83,1904.17 2058.17,2048.83 2057.5,2193.5C 2052.82,2187.46 2048.16,2181.46 2043.5,2175.5C 2040.08,2170.32 2036.41,2165.32 2032.5,2160.5C 2033.17,2023.5 2033.83,1886.5 2034.5,1749.5 Z"/></g>
<g><path style="opacity:1" fill="#008c99" d="M 2957.5,1786.5 C 2957.82,1792.36 2957.49,1798.02 2956.5,1803.5C 2956.5,1802.17 2956.5,1800.83 2956.5,1799.5C 2887,1799.17 2817.66,1799.5 2748.5,1800.5C 2747.61,1799.89 2746.61,1799.56 2745.5,1799.5C 2729.83,1784.83 2714.17,1770.17 2698.5,1755.5C 2784.67,1754.5 2871,1754.17 2957.5,1754.5C 2957.5,1765.17 2957.5,1775.83 2957.5,1786.5 Z"/></g>
<g><path style="opacity:1" fill="#f47a26" d="M 2059.5,1759.5 C 2062.59,1760.21 2065.59,1761.21 2068.5,1762.5C 2075.74,1765.46 2082.74,1768.8 2089.5,1772.5C 2088.83,1926.5 2088.17,2080.5 2087.5,2234.5C 2082.07,2226.62 2076.4,2218.95 2070.5,2211.5C 2066.17,2205.5 2061.83,2199.5 2057.5,2193.5C 2058.17,2048.83 2058.83,1904.17 2059.5,1759.5 Z"/></g>
<g><path style="opacity:1" fill="#008091" d="M 2674.5,1734.5 C 2683.07,1740.73 2691.07,1747.73 2698.5,1755.5C 2714.17,1770.17 2729.83,1784.83 2745.5,1799.5C 2690.33,1799.83 2635.33,1799.5 2580.5,1798.5C 2609.05,1773.21 2640.39,1751.88 2674.5,1734.5 Z"/></g>
<g><path style="opacity:1" fill="#f48028" d="M 2089.5,1772.5 C 2111.75,1781.96 2133.08,1792.96 2153.5,1805.5C 2152.83,1980.83 2152.17,2156.17 2151.5,2331.5C 2143.42,2318.33 2135.08,2305.33 2126.5,2292.5C 2117.98,2278.78 2108.98,2265.45 2099.5,2252.5C 2095.5,2246.5 2091.5,2240.5 2087.5,2234.5C 2088.17,2080.5 2088.83,1926.5 2089.5,1772.5 Z"/></g>
<g><path style="opacity:1" fill="#f9a63b" d="M 1596.5,1726.5 C 1623.47,1750.8 1649.47,1776.13 1674.5,1802.5C 1677.79,1807.13 1681.46,1811.46 1685.5,1815.5C 1658.26,1816.83 1630.93,1816.83 1603.5,1815.5C 1599.8,1785.94 1597.47,1756.28 1596.5,1726.5 Z"/></g>
<g><path style="opacity:1" fill="#00919e" d="M 2956.5,1803.5 C 2956.6,1814.7 2955.93,1825.7 2954.5,1836.5C 2954.5,1835.5 2954.5,1834.5 2954.5,1833.5C 2898.66,1833.17 2843,1833.5 2787.5,1834.5C 2773.88,1823.88 2760.88,1812.55 2748.5,1800.5C 2817.66,1799.5 2887,1799.17 2956.5,1799.5C 2956.5,1800.83 2956.5,1802.17 2956.5,1803.5 Z"/></g>
<g><path style="opacity:1" fill="#f5842a" d="M 2153.5,1805.5 C 2160.53,1809.01 2167.2,1813.01 2173.5,1817.5C 2172.5,2000.33 2172.17,2183.33 2172.5,2366.5C 2165.83,2355.83 2159.17,2345.17 2152.5,2334.5C 2152.44,2333.39 2152.11,2332.39 2151.5,2331.5C 2152.17,2156.17 2152.83,1980.83 2153.5,1805.5 Z"/></g>
<g><path style="opacity:1" fill="#f5872c" d="M 2173.5,1817.5 C 2179.7,1821.43 2186.03,1825.1 2192.5,1828.5C 2198.7,1831.77 2204.37,1835.77 2209.5,1840.5C 2208.5,1840.59 2207.67,1840.25 2207,1839.5C 2206.83,2036.33 2206.33,2233 2205.5,2429.5C 2198.58,2414.66 2190.91,2400.32 2182.5,2386.5C 2179.17,2379.83 2175.83,2373.17 2172.5,2366.5C 2172.17,2183.33 2172.5,2000.33 2173.5,1817.5 Z"/></g>
<g><path style="opacity:1" fill="#008795" d="M 2580.5,1798.5 C 2635.33,1799.5 2690.33,1799.83 2745.5,1799.5C 2746.61,1799.56 2747.61,1799.89 2748.5,1800.5C 2760.88,1812.55 2773.88,1823.88 2787.5,1834.5C 2791.17,1837.83 2794.83,1841.17 2798.5,1844.5C 2710.83,1844.5 2623.17,1844.5 2535.5,1844.5C 2548.44,1827.23 2563.44,1811.89 2580.5,1798.5 Z"/></g>
<g><path style="opacity:1" fill="#f68c2e" d="M 2209.5,1840.5 C 2227.76,1853.1 2245.42,1866.43 2262.5,1880.5C 2261.83,2105.5 2261.17,2330.5 2260.5,2555.5C 2252.79,2533.69 2244.13,2512.36 2234.5,2491.5C 2226.71,2473.26 2218.38,2455.26 2209.5,2437.5C 2208.17,2434.83 2206.83,2432.17 2205.5,2429.5C 2206.33,2233 2206.83,2036.33 2207,1839.5C 2207.67,1840.25 2208.5,1840.59 2209.5,1840.5 Z"/></g>
<g><path style="opacity:1" fill="#f89f37" d="M 1603.5,1815.5 C 1630.93,1816.83 1658.26,1816.83 1685.5,1815.5C 1698.87,1829.53 1711.87,1843.87 1724.5,1858.5C 1728.83,1863.83 1733.17,1869.17 1737.5,1874.5C 1696.34,1875.5 1655,1875.83 1613.5,1875.5C 1609.78,1855.58 1606.45,1835.58 1603.5,1815.5 Z"/></g>
<g><path style="opacity:1" fill="#008c99" d="M 2535.5,1844.5 C 2623.17,1844.5 2710.83,1844.5 2798.5,1844.5C 2811.44,1854.1 2824.1,1864.1 2836.5,1874.5C 2843.05,1879.27 2849.39,1884.27 2855.5,1889.5C 2738,1890.5 2620.33,1890.83 2502.5,1890.5C 2503.17,1888.83 2503.83,1887.17 2504.5,1885.5C 2513.68,1870.98 2524.01,1857.32 2535.5,1844.5 Z"/></g>
<g><path style="opacity:1" fill="#0099a9" d="M 2954.5,1836.5 C 2954.13,1850.73 2952.8,1864.73 2950.5,1878.5C 2950.5,1876.83 2950.5,1875.17 2950.5,1873.5C 2912.33,1873.17 2874.33,1873.5 2836.5,1874.5C 2824.1,1864.1 2811.44,1854.1 2798.5,1844.5C 2794.83,1841.17 2791.17,1837.83 2787.5,1834.5C 2843,1833.5 2898.66,1833.17 2954.5,1833.5C 2954.5,1834.5 2954.5,1835.5 2954.5,1836.5 Z"/></g>
<g><path style="opacity:1" fill="#009eb1" d="M 2836.5,1874.5 C 2874.33,1873.5 2912.33,1873.17 2950.5,1873.5C 2950.5,1875.17 2950.5,1876.83 2950.5,1878.5C 2950.06,1885.71 2949.06,1892.71 2947.5,1899.5C 2934.68,1898.17 2921.52,1897.5 2908,1897.5C 2894.66,1897.5 2881.5,1897.83 2868.5,1898.5C 2863.99,1895.75 2859.66,1892.75 2855.5,1889.5C 2849.39,1884.27 2843.05,1879.27 2836.5,1874.5 Z"/></g>
<g><path style="opacity:1" fill="#f79834" d="M 1737.5,1874.5 C 1750.21,1888.54 1762.54,1902.87 1774.5,1917.5C 1776.83,1920.83 1779.17,1924.17 1781.5,1927.5C 1729.67,1928.5 1677.67,1928.83 1625.5,1928.5C 1621.18,1910.9 1617.18,1893.23 1613.5,1875.5C 1655,1875.83 1696.34,1875.5 1737.5,1874.5 Z"/></g>
<g><path style="opacity:1" fill="#f69030" d="M 2262.5,1880.5 C 2270.48,1886.49 2278.15,1892.82 2285.5,1899.5C 2285.5,2143.5 2285.5,2387.5 2285.5,2631.5C 2278.43,2607.22 2270.43,2583.22 2261.5,2559.5C 2261.57,2558.04 2261.23,2556.71 2260.5,2555.5C 2261.17,2330.5 2261.83,2105.5 2262.5,1880.5 Z"/></g>
<g><path style="opacity:1" fill="#00929d" d="M 2855.5,1889.5 C 2859.66,1892.75 2863.99,1895.75 2868.5,1898.5C 2885.32,1911.41 2902.32,1924.08 2919.5,1936.5C 2772.5,1936.5 2625.5,1936.5 2478.5,1936.5C 2484.96,1920.25 2492.96,1904.92 2502.5,1890.5C 2620.33,1890.83 2738,1890.5 2855.5,1889.5 Z"/></g>
<g><path style="opacity:1" fill="#f79332" d="M 2285.5,1899.5 C 2296.92,1907.89 2307.59,1917.23 2317.5,1927.5C 2316.17,2277.83 2316.17,2628.17 2317.5,2978.5C 2306.89,2993.7 2295.56,3007.7 2283.5,3020.5C 2296.81,2993.58 2304.48,2965.25 2306.5,2935.5C 2320.49,2843.69 2315.83,2752.69 2292.5,2662.5C 2289.79,2652.27 2287.45,2641.94 2285.5,2631.5C 2285.5,2387.5 2285.5,2143.5 2285.5,1899.5 Z"/></g>
<g><path style="opacity:1" fill="#00a3b9" d="M 2947.5,1899.5 C 2945.48,1916.3 2942.81,1932.97 2939.5,1949.5C 2932.83,1945.17 2926.17,1940.83 2919.5,1936.5C 2902.32,1924.08 2885.32,1911.41 2868.5,1898.5C 2881.5,1897.83 2894.66,1897.5 2908,1897.5C 2921.52,1897.5 2934.68,1898.17 2947.5,1899.5 Z"/></g>
<g><path style="opacity:1" fill="#f79834" d="M 2317.5,1927.5 C 2339.8,1946.8 2360.8,1967.47 2380.5,1989.5C 2379.17,2290.83 2379.17,2592.17 2380.5,2893.5C 2360.63,2922.7 2339.63,2951.04 2317.5,2978.5C 2316.17,2628.17 2316.17,2277.83 2317.5,1927.5 Z"/></g>
<g><path style="opacity:1" fill="#f79231" d="M 1781.5,1927.5 C 1793.85,1942.52 1805.85,1957.86 1817.5,1973.5C 1758.34,1974.5 1699,1974.83 1639.5,1974.5C 1633.96,1959.49 1629.29,1944.16 1625.5,1928.5C 1677.67,1928.83 1729.67,1928.5 1781.5,1927.5 Z"/></g>
<g><path style="opacity:1" fill="#0097a1" d="M 2478.5,1936.5 C 2625.5,1936.5 2772.5,1936.5 2919.5,1936.5C 2926.17,1940.83 2932.83,1945.17 2939.5,1949.5C 2938.63,1954.53 2937.63,1959.53 2936.5,1964.5C 2780.5,1964.5 2624.5,1964.5 2468.5,1964.5C 2471.24,1954.95 2474.57,1945.61 2478.5,1936.5 Z"/></g>
<g><path style="opacity:1" fill="#f26d21" d="M 1882.5,1989.5 C 1881.5,2012.66 1881.17,2035.99 1881.5,2059.5C 1871.88,2045.88 1861.88,2032.55 1851.5,2019.5C 1845.58,2010.24 1839.25,2001.24 1832.5,1992.5C 1833.33,1975.34 1833.83,1958 1834,1940.5C 1850.98,1955.98 1867.15,1972.32 1882.5,1989.5 Z"/></g>
<g><path style="opacity:1" fill="#009aa3" d="M 2468.5,1964.5 C 2624.5,1964.5 2780.5,1964.5 2936.5,1964.5C 2934.81,1973.68 2932.81,1982.68 2930.5,1991.5C 2782.5,1990.17 2634.5,1990.17 2486.5,1991.5C 2479.49,1983.82 2472.82,1975.82 2466.5,1967.5C 2466.93,1966.29 2467.6,1965.29 2468.5,1964.5 Z"/></g>
<g><path style="opacity:1" fill="#f68c2e" d="M 1817.5,1973.5 C 1822.85,1979.52 1827.85,1985.85 1832.5,1992.5C 1839.25,2001.24 1845.58,2010.24 1851.5,2019.5C 1786.34,2020.5 1721,2020.83 1655.5,2020.5C 1649.18,2005.54 1643.84,1990.2 1639.5,1974.5C 1699,1974.83 1758.34,1974.5 1817.5,1973.5 Z"/></g>
<g><path style="opacity:1" fill="#f3731f" d="M 1882.5,1989.5 C 1891.89,1997.89 1900.56,2006.89 1908.5,2016.5C 1907.5,2043.33 1907.17,2070.33 1907.5,2097.5C 1899.83,2086.83 1892.17,2076.17 1884.5,2065.5C 1883.47,2063.48 1882.47,2061.48 1881.5,2059.5C 1881.17,2035.99 1881.5,2012.66 1882.5,1989.5 Z"/></g>
<g><path style="opacity:1" fill="#f89e37" d="M 2380.5,1989.5 C 2393.91,2002.25 2406.25,2015.91 2417.5,2030.5C 2416.17,2299.5 2416.17,2568.5 2417.5,2837.5C 2405.66,2856.51 2393.33,2875.18 2380.5,2893.5C 2379.17,2592.17 2379.17,2290.83 2380.5,1989.5 Z"/></g>
<g><path style="opacity:1" fill="#009fa6" d="M 2930.5,1991.5 C 2927.25,2006.84 2923.25,2021.84 2918.5,2036.5C 2786.33,2036.17 2654.33,2036.5 2522.5,2037.5C 2510.51,2022.21 2498.51,2006.87 2486.5,1991.5C 2634.5,1990.17 2782.5,1990.17 2930.5,1991.5 Z"/></g>
<g><path style="opacity:1" fill="#f3791d" d="M 1908.5,2016.5 C 1910.17,2017.5 1911.5,2018.83 1912.5,2020.5C 1919.83,2028.83 1927.17,2037.17 1934.5,2045.5C 1933.5,2075.66 1933.17,2106 1933.5,2136.5C 1929.25,2131.01 1925.25,2125.34 1921.5,2119.5C 1916.41,2112.42 1911.75,2105.08 1907.5,2097.5C 1907.17,2070.33 1907.5,2043.33 1908.5,2016.5 Z"/></g>
<g><path style="opacity:1" fill="#f5862c" d="M 1851.5,2019.5 C 1861.88,2032.55 1871.88,2045.88 1881.5,2059.5C 1882.47,2061.48 1883.47,2063.48 1884.5,2065.5C 1814.83,2066.17 1745.17,2066.83 1675.5,2067.5C 1668.05,2052.25 1661.38,2036.58 1655.5,2020.5C 1721,2020.83 1786.34,2020.5 1851.5,2019.5 Z"/></g>
<g><path style="opacity:1" fill="#f8a139" d="M 2417.5,2030.5 C 2429.23,2043.9 2440.23,2057.9 2450.5,2072.5C 2449.17,2308.5 2449.17,2544.5 2450.5,2780.5C 2440.27,2799.96 2429.27,2818.96 2417.5,2837.5C 2416.17,2568.5 2416.17,2299.5 2417.5,2030.5 Z"/></g>
<g><path style="opacity:1" fill="#00a5ab" d="M 2918.5,2036.5 C 2914.81,2052.22 2910.15,2067.56 2904.5,2082.5C 2787.16,2081.84 2670.16,2082.5 2553.5,2084.5C 2543.42,2068.67 2533.08,2053 2522.5,2037.5C 2654.33,2036.5 2786.33,2036.17 2918.5,2036.5 Z"/></g>
<g><path style="opacity:1" fill="#f4801b" d="M 1934.5,2045.5 C 1945.18,2056.84 1955.51,2068.51 1965.5,2080.5C 1964.5,2115.66 1964.17,2151 1964.5,2186.5C 1960.18,2179.87 1955.85,2173.2 1951.5,2166.5C 1945.08,2156.74 1939.08,2146.74 1933.5,2136.5C 1933.17,2106 1933.5,2075.66 1934.5,2045.5 Z"/></g>
<g><path style="opacity:1" fill="#f47f28" d="M 1884.5,2065.5 C 1892.17,2076.17 1899.83,2086.83 1907.5,2097.5C 1911.75,2105.08 1916.41,2112.42 1921.5,2119.5C 1848.67,2120.5 1775.67,2120.83 1702.5,2120.5C 1692.21,2103.59 1683.21,2085.92 1675.5,2067.5C 1745.17,2066.83 1814.83,2066.17 1884.5,2065.5 Z"/></g>
<g><path style="opacity:1" fill="#f9a63b" d="M 2450.5,2072.5 C 2464.98,2091.66 2478.31,2111.66 2490.5,2132.5C 2489.17,2321.83 2489.17,2511.17 2490.5,2700.5C 2478.73,2728.04 2465.4,2754.7 2450.5,2780.5C 2449.17,2544.5 2449.17,2308.5 2450.5,2072.5 Z"/></g>
<g><path style="opacity:1" fill="#f58619" d="M 1965.5,2080.5 C 1969.5,2084.83 1973.5,2089.17 1977.5,2093.5C 1981.83,2098.83 1986.17,2104.17 1990.5,2109.5C 1989.5,2148.66 1989.17,2188 1989.5,2227.5C 1985.92,2222.67 1982.59,2217.67 1979.5,2212.5C 1974.5,2203.83 1969.5,2195.17 1964.5,2186.5C 1964.17,2151 1964.5,2115.66 1965.5,2080.5 Z"/></g>
<g><path style="opacity:1" fill="#00abaf" d="M 2904.5,2082.5 C 2899.94,2097.87 2894.6,2112.87 2888.5,2127.5C 2785.16,2126.84 2682.16,2127.5 2579.5,2129.5C 2571.1,2114.37 2562.43,2099.37 2553.5,2084.5C 2670.16,2082.5 2787.16,2081.84 2904.5,2082.5 Z"/></g>
<g><path style="opacity:1" fill="#f68c17" d="M 1990.5,2109.5 C 1997.51,2117.18 2004.18,2125.18 2010.5,2133.5C 2013.22,2136.21 2015.55,2139.21 2017.5,2142.5C 2016.5,2186.33 2016.17,2230.33 2016.5,2274.5C 2014.35,2272.21 2012.68,2269.54 2011.5,2266.5C 2003.9,2253.63 1996.57,2240.63 1989.5,2227.5C 1989.17,2188 1989.5,2148.66 1990.5,2109.5 Z"/></g>
<g><path style="opacity:1" fill="#00b0b3" d="M 2888.5,2127.5 C 2883.6,2141.9 2877.93,2155.9 2871.5,2169.5C 2780.84,2167.5 2689.84,2166.84 2598.5,2167.5C 2592.19,2154.87 2585.85,2142.21 2579.5,2129.5C 2682.16,2127.5 2785.16,2126.84 2888.5,2127.5 Z"/></g>
<g><path style="opacity:1" fill="#f9aa3d" d="M 2490.5,2132.5 C 2507.32,2161.28 2520.65,2191.61 2530.5,2223.5C 2529.17,2345.83 2529.17,2468.17 2530.5,2590.5C 2519.74,2628.13 2506.4,2664.79 2490.5,2700.5C 2489.17,2511.17 2489.17,2321.83 2490.5,2132.5 Z"/></g>
<g><path style="opacity:1" fill="#f69215" d="M 2017.5,2142.5 C 2022.5,2148.5 2027.5,2154.5 2032.5,2160.5C 2036.41,2165.32 2040.08,2170.32 2043.5,2175.5C 2042.5,2224.33 2042.17,2273.33 2042.5,2322.5C 2033.44,2306.76 2024.77,2290.76 2016.5,2274.5C 2016.17,2230.33 2016.5,2186.33 2017.5,2142.5 Z"/></g>
<g><path style="opacity:1" fill="#f37825" d="M 1921.5,2119.5 C 1925.25,2125.34 1929.25,2131.01 1933.5,2136.5C 1939.08,2146.74 1945.08,2156.74 1951.5,2166.5C 1878,2166.17 1804.66,2166.5 1731.5,2167.5C 1720.58,2152.68 1710.92,2137.01 1702.5,2120.5C 1775.67,2120.83 1848.67,2120.5 1921.5,2119.5 Z"/></g>
<g><path style="opacity:1" fill="#f79813" d="M 2043.5,2175.5 C 2048.16,2181.46 2052.82,2187.46 2057.5,2193.5C 2061.83,2199.5 2066.17,2205.5 2070.5,2211.5C 2069.5,2265.33 2069.17,2319.33 2069.5,2373.5C 2062.17,2360.17 2054.83,2346.83 2047.5,2333.5C 2046.1,2329.71 2044.44,2326.04 2042.5,2322.5C 2042.17,2273.33 2042.5,2224.33 2043.5,2175.5 Z"/></g>
<g><path style="opacity:1" fill="#f37322" d="M 1951.5,2166.5 C 1955.85,2173.2 1960.18,2179.87 1964.5,2186.5C 1969.5,2195.17 1974.5,2203.83 1979.5,2212.5C 1907.66,2212.17 1836,2212.5 1764.5,2213.5C 1752.03,2199.23 1741.03,2183.9 1731.5,2167.5C 1804.66,2166.5 1878,2166.17 1951.5,2166.5 Z"/></g>
<g><path style="opacity:1" fill="#12b7b7" d="M 2598.5,2167.5 C 2689.84,2166.84 2780.84,2167.5 2871.5,2169.5C 2863.49,2189.84 2854.16,2209.51 2843.5,2228.5C 2770,2228.17 2696.66,2228.5 2623.5,2229.5C 2615.76,2208.67 2607.43,2188.01 2598.5,2167.5 Z"/></g>
<g><path style="opacity:1" fill="#f26d20" d="M 1979.5,2212.5 C 1982.59,2217.67 1985.92,2222.67 1989.5,2227.5C 1996.57,2240.63 2003.9,2253.63 2011.5,2266.5C 1944.9,2267.5 1878.24,2267.83 1811.5,2267.5C 1794.35,2250.69 1778.68,2232.69 1764.5,2213.5C 1836,2212.5 1907.66,2212.17 1979.5,2212.5 Z"/></g>
<g><path style="opacity:1" fill="#f89f11" d="M 2070.5,2211.5 C 2076.4,2218.95 2082.07,2226.62 2087.5,2234.5C 2091.5,2240.5 2095.5,2246.5 2099.5,2252.5C 2098.5,2312.33 2098.17,2372.33 2098.5,2432.5C 2091.44,2418.04 2084.1,2403.71 2076.5,2389.5C 2074.17,2384.17 2071.83,2378.83 2069.5,2373.5C 2069.17,2319.33 2069.5,2265.33 2070.5,2211.5 Z"/></g>
<g><path style="opacity:1" fill="#f8ac3e" d="M 2530.5,2223.5 C 2548.72,2279.59 2557.72,2337.26 2557.5,2396.5C 2557.64,2462.49 2548.64,2527.16 2530.5,2590.5C 2529.17,2468.17 2529.17,2345.83 2530.5,2223.5 Z"/></g>
<g><path style="opacity:1" fill="#f16721" d="M 2011.5,2266.5 C 2012.68,2269.54 2014.35,2272.21 2016.5,2274.5C 2024.77,2290.76 2033.44,2306.76 2042.5,2322.5C 2044.44,2326.04 2046.1,2329.71 2047.5,2333.5C 1993.66,2333.17 1940,2333.5 1886.5,2334.5C 1859.76,2314.27 1834.76,2291.93 1811.5,2267.5C 1878.24,2267.83 1944.9,2267.5 2011.5,2266.5 Z"/></g>
<g><path style="opacity:1" fill="#34bfbd" d="M 2843.5,2228.5 C 2835.18,2246.48 2825.85,2263.81 2815.5,2280.5C 2756.5,2279.17 2697.5,2279.17 2638.5,2280.5C 2633.99,2263.48 2628.99,2246.48 2623.5,2229.5C 2696.66,2228.5 2770,2228.17 2843.5,2228.5 Z"/></g>
<g><path style="opacity:1" fill="#f9a60f" d="M 2099.5,2252.5 C 2108.98,2265.45 2117.98,2278.78 2126.5,2292.5C 2125.5,2358.33 2125.17,2424.33 2125.5,2490.5C 2118.5,2475.83 2111.5,2461.17 2104.5,2446.5C 2102.5,2441.83 2100.5,2437.17 2098.5,2432.5C 2098.17,2372.33 2098.5,2312.33 2099.5,2252.5 Z"/></g>
<g><path style="opacity:1" fill="#47c4c0" d="M 2815.5,2280.5 C 2808.57,2293.37 2800.9,2305.71 2792.5,2317.5C 2744,2316.5 2695.34,2316.17 2646.5,2316.5C 2643.85,2304.61 2641.18,2292.61 2638.5,2280.5C 2697.5,2279.17 2756.5,2279.17 2815.5,2280.5 Z"/></g>
<g><path style="opacity:1" fill="#f9ab0d" d="M 2126.5,2292.5 C 2135.08,2305.33 2143.42,2318.33 2151.5,2331.5C 2152.11,2332.39 2152.44,2333.39 2152.5,2334.5C 2151.5,2403.33 2151.17,2472.33 2151.5,2541.5C 2148.5,2539.17 2145.83,2536.5 2143.5,2533.5C 2137.78,2519.05 2131.78,2504.72 2125.5,2490.5C 2125.17,2424.33 2125.5,2358.33 2126.5,2292.5 Z"/></g>
<g><path style="opacity:1" fill="#f16021" d="M 2047.5,2333.5 C 2054.83,2346.83 2062.17,2360.17 2069.5,2373.5C 2071.83,2378.83 2074.17,2384.17 2076.5,2389.5C 2037.33,2389.17 1998.33,2389.5 1959.5,2390.5C 1934.59,2372.55 1910.25,2353.88 1886.5,2334.5C 1940,2333.5 1993.66,2333.17 2047.5,2333.5 Z"/></g>
<g><path style="opacity:1" fill="#fab10b" d="M 2152.5,2334.5 C 2159.17,2345.17 2165.83,2355.83 2172.5,2366.5C 2175.83,2373.17 2179.17,2379.83 2182.5,2386.5C 2181.5,2448.66 2181.17,2511 2181.5,2573.5C 2171.89,2562.56 2161.89,2551.89 2151.5,2541.5C 2151.17,2472.33 2151.5,2403.33 2152.5,2334.5 Z"/></g>
<g><path style="opacity:1" fill="#60cac4" d="M 2646.5,2316.5 C 2695.34,2316.17 2744,2316.5 2792.5,2317.5C 2788.69,2323.78 2784.86,2330.11 2781,2336.5C 2774.39,2346.08 2767.56,2355.41 2760.5,2364.5C 2742.84,2363.83 2725,2363.5 2707,2363.5C 2688.82,2363.5 2670.99,2364.17 2653.5,2365.5C 2651.28,2349.29 2648.95,2332.96 2646.5,2316.5 Z"/></g>
<g><path style="opacity:1" fill="#71cec8" d="M 2760.5,2364.5 C 2755.21,2372.45 2749.55,2380.12 2743.5,2387.5C 2714,2386.5 2684.34,2386.17 2654.5,2386.5C 2654,2379.51 2653.67,2372.51 2653.5,2365.5C 2670.99,2364.17 2688.82,2363.5 2707,2363.5C 2725,2363.5 2742.84,2363.83 2760.5,2364.5 Z"/></g>
<g><path style="opacity:1" fill="#fbb809" d="M 2182.5,2386.5 C 2190.91,2400.32 2198.58,2414.66 2205.5,2429.5C 2206.83,2432.17 2208.17,2434.83 2209.5,2437.5C 2208.5,2494.33 2208.17,2551.33 2208.5,2608.5C 2199.75,2596.69 2190.75,2585.02 2181.5,2573.5C 2181.17,2511 2181.5,2448.66 2182.5,2386.5 Z"/></g>
<g><path style="opacity:1" fill="#f05a21" d="M 1959.5,2390.5 C 1998.33,2389.5 2037.33,2389.17 2076.5,2389.5C 2084.1,2403.71 2091.44,2418.04 2098.5,2432.5C 2100.5,2437.17 2102.5,2441.83 2104.5,2446.5C 2081.4,2445.17 2058.4,2445.17 2035.5,2446.5C 2010.17,2427.83 1984.83,2409.17 1959.5,2390.5 Z"/></g>
<g><path style="opacity:1" fill="#7dd0c9" d="M 2654.5,2386.5 C 2684.34,2386.17 2714,2386.5 2743.5,2387.5C 2737.56,2396.43 2730.9,2404.77 2723.5,2412.5C 2701.01,2411.5 2678.34,2411.17 2655.5,2411.5C 2655.81,2415.37 2655.48,2419.04 2654.5,2422.5C 2654.5,2410.5 2654.5,2398.5 2654.5,2386.5 Z"/></g>
<g><path style="opacity:1" fill="#8bd4cc" d="M 2723.5,2412.5 C 2714.55,2424.45 2704.89,2435.78 2694.5,2446.5C 2681.01,2445.5 2667.34,2445.17 2653.5,2445.5C 2654.07,2437.85 2654.4,2430.18 2654.5,2422.5C 2655.48,2419.04 2655.81,2415.37 2655.5,2411.5C 2678.34,2411.17 2701.01,2411.5 2723.5,2412.5 Z"/></g>
<g><path style="opacity:1" fill="#fbbd07" d="M 2209.5,2437.5 C 2218.38,2455.26 2226.71,2473.26 2234.5,2491.5C 2233.5,2543 2233.17,2594.66 2233.5,2646.5C 2225.2,2633.86 2216.87,2621.19 2208.5,2608.5C 2208.17,2551.33 2208.5,2494.33 2209.5,2437.5 Z"/></g>
<g><path style="opacity:1" fill="#ef5422" d="M 2104.5,2446.5 C 2111.5,2461.17 2118.5,2475.83 2125.5,2490.5C 2131.78,2504.72 2137.78,2519.05 2143.5,2533.5C 2109.21,2502.19 2073.21,2473.19 2035.5,2446.5C 2058.4,2445.17 2081.4,2445.17 2104.5,2446.5 Z"/></g>
<g><path style="opacity:1" fill="#9bd6cc" d="M 2653.5,2445.5 C 2667.34,2445.17 2681.01,2445.5 2694.5,2446.5C 2679.93,2463.57 2664.43,2479.9 2648,2495.5C 2649.72,2478.83 2651.55,2462.17 2653.5,2445.5 Z"/></g>
<g><path style="opacity:1" fill="#fcc305" d="M 2234.5,2491.5 C 2244.13,2512.36 2252.79,2533.69 2260.5,2555.5C 2261.23,2556.71 2261.57,2558.04 2261.5,2559.5C 2260.5,2606.66 2260.17,2654 2260.5,2701.5C 2252.32,2682.81 2243.32,2664.47 2233.5,2646.5C 2233.17,2594.66 2233.5,2543 2234.5,2491.5 Z"/></g>
<g><path style="opacity:1" fill="#fdca03" d="M 2261.5,2559.5 C 2270.43,2583.22 2278.43,2607.22 2285.5,2631.5C 2287.45,2641.94 2289.79,2652.27 2292.5,2662.5C 2291.5,2709.33 2291.17,2756.33 2291.5,2803.5C 2282.94,2769.1 2272.61,2735.1 2260.5,2701.5C 2260.17,2654 2260.5,2606.66 2261.5,2559.5 Z"/></g>
<g><path style="opacity:1" fill="#fcce02" d="M 2292.5,2662.5 C 2315.83,2752.69 2320.49,2843.69 2306.5,2935.5C 2307.08,2913.43 2306.25,2891.43 2304,2869.5C 2300.67,2847.33 2296.5,2825.33 2291.5,2803.5C 2291.17,2756.33 2291.5,2709.33 2292.5,2662.5 Z"/></g>
<g><path style="opacity:1" fill="#242021" d="M 3198.5,3064.5 C 3209.83,3064.5 3221.17,3064.5 3232.5,3064.5C 3232.5,3207.17 3232.5,3349.83 3232.5,3492.5C 3222.83,3492.5 3213.17,3492.5 3203.5,3492.5C 3202.44,3480.16 3201.28,3467.82 3200,3455.5C 3163.43,3492.36 3119.59,3505.86 3068.5,3496C 3023.87,3482.7 2995.37,3453.53 2983,3408.5C 2971.77,3366.71 2973.1,3325.38 2987,3284.5C 3014.3,3222.59 3061.8,3194.09 3129.5,3199C 3155.8,3203.9 3178.97,3215.07 3199,3232.5C 3198.7,3176.5 3198.53,3120.5 3198.5,3064.5 Z"/></g>
<g><path style="opacity:1" fill="#878484" d="M 3224.5,3073.5 C 3218.83,3073.5 3213.17,3073.5 3207.5,3073.5C 3207.5,3116.5 3207.5,3159.5 3207.5,3202.5C 3206.5,3159.34 3206.17,3116 3206.5,3072.5C 3212.69,3072.18 3218.69,3072.51 3224.5,3073.5 Z"/></g>
<g><path style="opacity:1" fill="#fbfbfb" d="M 3224.5,3073.5 C 3224.5,3210.5 3224.5,3347.5 3224.5,3484.5C 3219.83,3484.5 3215.17,3484.5 3210.5,3484.5C 3209.74,3470.84 3209.08,3457.17 3208.5,3443.5C 3205.43,3443.18 3202.43,3443.52 3199.5,3444.5C 3179.31,3465.94 3154.98,3480.77 3126.5,3489C 3052.63,3498.79 3006.46,3467.62 2988,3395.5C 2981.36,3363.65 2982.03,3331.99 2990,3300.5C 3011.45,3237.03 3055.62,3205.53 3122.5,3206C 3152.85,3210.51 3178.85,3223.51 3200.5,3245C 3203.15,3245.5 3205.81,3245.66 3208.5,3245.5C 3208.31,3231.16 3207.97,3216.83 3207.5,3202.5C 3207.5,3159.5 3207.5,3116.5 3207.5,3073.5C 3213.17,3073.5 3218.83,3073.5 3224.5,3073.5 Z"/></g>
<g><path style="opacity:1" fill="#242021" d="M 1737.5,3080.5 C 1764.5,3079.67 1777,3092.67 1775,3119.5C 1769.49,3138.85 1756.65,3147.02 1736.5,3144C 1717.89,3137.96 1710.05,3125.13 1713,3105.5C 1714.8,3097.39 1718.96,3090.89 1725.5,3086C 1729.48,3083.85 1733.48,3082.02 1737.5,3080.5 Z"/></g>
<g><path style="opacity:1" fill="#fbfbfb" d="M 1739.5,3088.5 C 1759.65,3088.48 1768.82,3098.48 1767,3118.5C 1762.37,3132.91 1752.53,3138.74 1737.5,3136C 1724.37,3130.58 1718.87,3120.75 1721,3106.5C 1723.79,3096.88 1729.96,3090.88 1739.5,3088.5 Z"/></g>
<g><path style="opacity:1" fill="#242022" d="M 1271.5,3099.5 C 1339.17,3099.5 1406.83,3099.5 1474.5,3099.5C 1474.67,3195.17 1474.5,3290.83 1474,3386.5C 1468.18,3462.15 1427.35,3499.82 1351.5,3499.5C 1301,3498.26 1263.66,3475.59 1239.5,3431.5C 1247.52,3424.15 1255.85,3417.15 1264.5,3410.5C 1273.13,3424.64 1283.8,3437.14 1296.5,3448C 1326.92,3469.17 1359.58,3473.17 1394.5,3460C 1418.16,3448.56 1431.99,3429.72 1436,3403.5C 1437.4,3394.88 1438.4,3386.22 1439,3377.5C 1439.5,3295.17 1439.67,3212.83 1439.5,3130.5C 1383.5,3130.5 1327.5,3130.5 1271.5,3130.5C 1271.5,3120.17 1271.5,3109.83 1271.5,3099.5 Z"/></g>
<g><path style="opacity:1" fill="#8c8a8a" d="M 1466.5,3108.5 C 1404.5,3108.5 1342.5,3108.5 1280.5,3108.5C 1280.5,3113.17 1280.5,3117.83 1280.5,3122.5C 1279.51,3117.69 1279.18,3112.69 1279.5,3107.5C 1342,3107.17 1404.34,3107.5 1466.5,3108.5 Z"/></g>
<g><path style="opacity:1" fill="#fcfcfc" d="M 1466.5,3108.5 C 1466.67,3200.83 1466.5,3293.17 1466,3385.5C 1460.9,3455.43 1423.4,3490.77 1353.5,3491.5C 1307.98,3490.92 1273.32,3471.42 1249.5,3433C 1253.69,3429.31 1258.02,3425.81 1262.5,3422.5C 1297.25,3473.03 1343.59,3487.53 1401.5,3466C 1423.9,3454.09 1437.73,3435.59 1443,3410.5C 1444.98,3401.26 1446.32,3391.92 1447,3382.5C 1447.5,3295.83 1447.67,3209.17 1447.5,3122.5C 1391.83,3122.5 1336.17,3122.5 1280.5,3122.5C 1280.5,3117.83 1280.5,3113.17 1280.5,3108.5C 1342.5,3108.5 1404.5,3108.5 1466.5,3108.5 Z"/></g>
<g><path style="opacity:1" fill="#242122" d="M 2013.5,3197.5 C 2047.48,3194.06 2069.98,3208.4 2081,3240.5C 2089.79,3226.71 2100.96,3215.21 2114.5,3206C 2135.98,3195.01 2157.64,3194.68 2179.5,3205C 2192.37,3212.88 2201.2,3224.04 2206,3238.5C 2208.95,3246.95 2210.95,3255.61 2212,3264.5C 2212.5,3340.5 2212.67,3416.5 2212.5,3492.5C 2201.5,3492.5 2190.5,3492.5 2179.5,3492.5C 2179.96,3417.48 2179.46,3342.48 2178,3267.5C 2176.62,3254.24 2171.12,3243.07 2161.5,3234C 2145.08,3225.54 2129.75,3227.2 2115.5,3239C 2104.39,3250.44 2095.23,3263.27 2088,3277.5C 2087.5,3349.17 2087.33,3420.83 2087.5,3492.5C 2076.5,3492.5 2065.5,3492.5 2054.5,3492.5C 2054.67,3418.5 2054.5,3344.5 2054,3270.5C 2053.31,3256.06 2047.81,3243.89 2037.5,3234C 2031.51,3230.38 2025.01,3228.88 2018,3229.5C 2008.42,3229.14 1999.92,3231.97 1992.5,3238C 1980.69,3249.14 1971.19,3261.98 1964,3276.5C 1963.5,3348.83 1963.33,3421.17 1963.5,3493.5C 1952.17,3493.5 1940.83,3493.5 1929.5,3493.5C 1929.5,3397.17 1929.5,3300.83 1929.5,3204.5C 1939.19,3204.17 1948.86,3204.5 1958.5,3205.5C 1959.45,3215.15 1960.45,3224.82 1961.5,3234.5C 1969.79,3220.7 1981.13,3210.2 1995.5,3203C 2001.52,3200.83 2007.52,3199 2013.5,3197.5 Z"/></g>
<g><path style="opacity:1" fill="#242021" d="M 2421.5,3197.5 C 2498.65,3196.14 2542.49,3233.81 2553,3310.5C 2558.55,3349.19 2553.89,3386.52 2539,3422.5C 2511.54,3476.57 2467.37,3502.07 2406.5,3499C 2378.34,3493.83 2353.17,3482.33 2331,3464.5C 2331.41,3516.16 2331.58,3567.82 2331.5,3619.5C 2320.17,3619.5 2308.83,3619.5 2297.5,3619.5C 2297.5,3481.17 2297.5,3342.83 2297.5,3204.5C 2307.5,3204.5 2317.5,3204.5 2327.5,3204.5C 2328.33,3216.83 2329.17,3229.16 2330,3241.5C 2356.05,3217.56 2386.55,3202.89 2421.5,3197.5 Z"/></g>
<g><path style="opacity:1" fill="#242021" d="M 2764.5,3197.5 C 2789.57,3195.73 2813.57,3199.9 2836.5,3210C 2862.59,3224.78 2878.76,3246.95 2885,3276.5C 2886.52,3282.75 2887.52,3289.09 2888,3295.5C 2888.5,3361.17 2888.67,3426.83 2888.5,3492.5C 2878.5,3492.5 2868.5,3492.5 2858.5,3492.5C 2857.94,3479.8 2856.94,3467.13 2855.5,3454.5C 2830.37,3473.9 2802.37,3487.73 2771.5,3496C 2738.29,3503.85 2706.62,3499.85 2676.5,3484C 2644.27,3462.33 2633.1,3432.5 2643,3394.5C 2650.43,3374.4 2663.6,3359.23 2682.5,3349C 2703.33,3337.83 2725.33,3329.83 2748.5,3325C 2783.48,3317.46 2818.81,3312.29 2854.5,3309.5C 2851.39,3251.22 2820.72,3224.39 2762.5,3229C 2736.53,3232.48 2712.2,3240.81 2689.5,3254C 2682.5,3258.5 2675.5,3263 2668.5,3267.5C 2662.85,3260.22 2657.68,3252.55 2653,3244.5C 2652.29,3242.63 2652.79,3241.13 2654.5,3240C 2687.81,3217.06 2724.48,3202.9 2764.5,3197.5 Z"/></g>
<g><path style="opacity:1" fill="#242022" d="M 1592.5,3204.5 C 1650.5,3204.5 1708.5,3204.5 1766.5,3204.5C 1766.5,3300.5 1766.5,3396.5 1766.5,3492.5C 1755.5,3492.5 1744.5,3492.5 1733.5,3492.5C 1733.5,3406.83 1733.5,3321.17 1733.5,3235.5C 1686.5,3235.5 1639.5,3235.5 1592.5,3235.5C 1592.5,3225.17 1592.5,3214.83 1592.5,3204.5 Z"/></g>
<g><path style="opacity:1" fill="#fcfcfc" d="M 1955.5,3275.5 C 1954.5,3345 1954.17,3414.66 1954.5,3484.5C 1948.83,3484.5 1943.17,3484.5 1937.5,3484.5C 1937.5,3393.83 1937.5,3303.17 1937.5,3212.5C 1942.17,3212.5 1946.83,3212.5 1951.5,3212.5C 1952.21,3224.5 1952.87,3236.5 1953.5,3248.5C 1953.5,3249.5 1953.5,3250.5 1953.5,3251.5C 1956.39,3251.81 1959.05,3251.47 1961.5,3250.5C 1967.91,3238.86 1975.91,3228.36 1985.5,3219C 2005.73,3203.82 2027.4,3201.48 2050.5,3212C 2059.22,3217.92 2065.72,3225.75 2070,3235.5C 2073.47,3243.92 2076.14,3252.59 2078,3261.5C 2086.87,3245.29 2098.04,3230.79 2111.5,3218C 2134.91,3201.79 2158.58,3201.46 2182.5,3217C 2196.49,3231.96 2203.66,3249.79 2204,3270.5C 2204.5,3341.83 2204.67,3413.17 2204.5,3484.5C 2198.83,3484.5 2193.17,3484.5 2187.5,3484.5C 2187.67,3415.17 2187.5,3345.83 2187,3276.5C 2187.13,3257.54 2180.63,3241.37 2167.5,3228C 2146.48,3216.45 2126.81,3218.45 2108.5,3234C 2097.05,3246.46 2087.55,3260.29 2080,3275.5C 2079.5,3345.17 2079.33,3414.83 2079.5,3484.5C 2073.83,3484.5 2068.17,3484.5 2062.5,3484.5C 2062.67,3412.83 2062.5,3341.17 2062,3269.5C 2060.81,3253.9 2054.98,3240.4 2044.5,3229C 2024.55,3216.93 2005.21,3217.93 1986.5,3232C 1973.58,3244.68 1963.25,3259.18 1955.5,3275.5 Z"/></g>
<g><path style="opacity:1" fill="#fcfcfc" d="M 2329.5,3452.5 C 2327.05,3451.53 2324.39,3451.19 2321.5,3451.5C 2321.18,3455.7 2321.52,3459.7 2322.5,3463.5C 2323.26,3512.83 2323.59,3562.16 2323.5,3611.5C 2317.83,3611.5 2312.17,3611.5 2306.5,3611.5C 2306.5,3478.83 2306.5,3346.17 2306.5,3213.5C 2310.83,3213.5 2315.17,3213.5 2319.5,3213.5C 2320.69,3226.82 2321.69,3240.15 2322.5,3253.5C 2324.86,3253.66 2327.19,3253.5 2329.5,3253C 2358.67,3224 2393.84,3208.17 2435,3205.5C 2489.63,3207.81 2524.63,3235.14 2540,3287.5C 2548.63,3323.49 2548.63,3359.49 2540,3395.5C 2525.27,3446.57 2492.1,3478.07 2440.5,3490C 2416.44,3493.9 2393.44,3490.57 2371.5,3480C 2356,3472.97 2342,3463.8 2329.5,3452.5 Z"/></g>
<g><path style="opacity:1" fill="#fafafa" d="M 2765.5,3205.5 C 2790.89,3203.67 2814.89,3208.5 2837.5,3220C 2858.44,3233.68 2871.61,3252.85 2877,3277.5C 2878.09,3284.82 2879.09,3292.15 2880,3299.5C 2880.5,3361.17 2880.67,3422.83 2880.5,3484.5C 2875.83,3484.5 2871.17,3484.5 2866.5,3484.5C 2865.41,3470.51 2864.41,3456.51 2863.5,3442.5C 2861.14,3442.34 2858.81,3442.5 2856.5,3443C 2826.89,3468.14 2792.89,3484.14 2754.5,3491C 2723.14,3494.75 2694.81,3487.41 2669.5,3469C 2649.24,3448.54 2643.07,3424.37 2651,3396.5C 2656.04,3382.12 2664.87,3370.62 2677.5,3362C 2692.96,3351.84 2709.63,3344.17 2727.5,3339C 2771.73,3327.26 2816.73,3320.09 2862.5,3317.5C 2864.07,3294.96 2859.24,3273.96 2848,3254.5C 2835.91,3236.52 2819.07,3225.69 2797.5,3222C 2760.27,3217.72 2725.27,3224.72 2692.5,3243C 2685.33,3247.08 2678.33,3251.42 2671.5,3256C 2668.49,3253.61 2665.99,3250.44 2664,3246.5C 2663.33,3245.5 2663.33,3244.5 2664,3243.5C 2695.02,3223 2728.85,3210.33 2765.5,3205.5 Z"/></g>
<g><path style="opacity:1" fill="#fdfdfd" d="M 1601.5,3212.5 C 1653.83,3212.5 1706.17,3212.5 1758.5,3212.5C 1758.5,3303.17 1758.5,3393.83 1758.5,3484.5C 1752.83,3484.5 1747.17,3484.5 1741.5,3484.5C 1741.5,3398.5 1741.5,3312.5 1741.5,3226.5C 1694.83,3226.5 1648.17,3226.5 1601.5,3226.5C 1601.5,3221.83 1601.5,3217.17 1601.5,3212.5 Z"/></g>
<g><path style="opacity:1" fill="#c7c6c6" d="M 2319.5,3213.5 C 2315.17,3213.5 2310.83,3213.5 2306.5,3213.5C 2306.5,3346.17 2306.5,3478.83 2306.5,3611.5C 2305.5,3478.67 2305.17,3345.67 2305.5,3212.5C 2310.36,3212.18 2315.03,3212.51 2319.5,3213.5 Z"/></g>
<g><path style="opacity:1" fill="#242021" d="M 2416.5,3220.5 C 2444.69,3218.04 2470.02,3225.21 2492.5,3242C 2505.95,3255.39 2515.45,3271.23 2521,3289.5C 2527.62,3316.49 2529.29,3343.82 2526,3371.5C 2521.63,3406.81 2505.8,3435.65 2478.5,3458C 2442.69,3480.44 2405.69,3482.44 2367.5,3464C 2351.78,3456.14 2337.44,3446.31 2324.5,3434.5C 2323.33,3380.84 2323.17,3327.17 2324,3273.5C 2349.6,3246.62 2380.44,3228.95 2416.5,3220.5 Z"/></g>
<g><path style="opacity:1" fill="#242021" d="M 3100.5,3220.5 C 3142.17,3219.11 3177.33,3233.44 3206,3263.5C 3206.67,3317.17 3206.67,3370.83 3206,3424.5C 3188.16,3444.35 3166.99,3459.52 3142.5,3470C 3106.31,3483.05 3072.97,3478.05 3042.5,3455C 3023.17,3436.51 3011,3414.01 3006,3387.5C 2996.38,3343.61 3003.71,3302.94 3028,3265.5C 3046.26,3240.95 3070.43,3225.95 3100.5,3220.5 Z"/></g>
<g><path style="opacity:1" fill="#7b7878" d="M 1601.5,3212.5 C 1601.5,3217.17 1601.5,3221.83 1601.5,3226.5C 1648.17,3226.5 1694.83,3226.5 1741.5,3226.5C 1741.5,3312.5 1741.5,3398.5 1741.5,3484.5C 1740.5,3399 1740.17,3313.33 1740.5,3227.5C 1693.83,3227.5 1647.17,3227.5 1600.5,3227.5C 1600.18,3222.31 1600.51,3217.31 1601.5,3212.5 Z"/></g>
<g><path style="opacity:1" fill="#0b0e17" d="M 2418.5,3228.5 C 2466.48,3225.21 2497.98,3246.21 2513,3291.5C 2521.65,3325.19 2521.65,3358.85 2513,3392.5C 2495.72,3447.22 2458.55,3472.05 2401.5,3467C 2375.32,3460.58 2352.32,3448.41 2332.5,3430.5C 2331.33,3379.5 2331.17,3328.5 2332,3277.5C 2355.94,3252.45 2384.77,3236.12 2418.5,3228.5 Z"/></g>
<g><path style="opacity:1" fill="#0b0e17" d="M 3105.5,3228.5 C 3141.89,3228.45 3172.72,3241.45 3198,3267.5C 3198.67,3318.5 3198.67,3369.5 3198,3420.5C 3179.01,3442.07 3155.85,3457.24 3128.5,3466C 3073.4,3475.54 3036.57,3454.04 3018,3401.5C 3008.42,3369.58 3008.09,3337.58 3017,3305.5C 3031.32,3261.99 3060.82,3236.32 3105.5,3228.5 Z"/></g>
<g><path style="opacity:1" fill="#8b8989" d="M 1953.5,3248.5 C 1955.8,3250.2 1958.47,3250.87 1961.5,3250.5C 1959.05,3251.47 1956.39,3251.81 1953.5,3251.5C 1953.5,3250.5 1953.5,3249.5 1953.5,3248.5 Z"/></g>
<g><path style="opacity:1" fill="#8c8a8a" d="M 1955.5,3275.5 C 1955.5,3345.5 1955.5,3415.5 1955.5,3485.5C 1949.31,3485.82 1943.31,3485.49 1937.5,3484.5C 1943.17,3484.5 1948.83,3484.5 1954.5,3484.5C 1954.17,3414.66 1954.5,3345 1955.5,3275.5 Z"/></g>
<g><path style="opacity:1" fill="#252122" d="M 2856.5,3328.5 C 2858.5,3328.5 2860.5,3328.5 2862.5,3328.5C 2862.67,3360.84 2862.5,3393.17 2862,3425.5C 2844.63,3440.11 2825.79,3452.61 2805.5,3463C 2773.14,3478.55 2739.81,3481.21 2705.5,3471C 2673.77,3458.39 2661.27,3435.22 2668,3401.5C 2673.8,3385.7 2683.97,3373.53 2698.5,3365C 2723.08,3352.2 2749.08,3343.7 2776.5,3339.5C 2803.22,3335.17 2829.89,3331.5 2856.5,3328.5 Z"/></g>
<g><path style="opacity:1" fill="#0b0e17" d="M 2849.5,3337.5 C 2851.17,3337.5 2852.83,3337.5 2854.5,3337.5C 2854.83,3365.51 2854.5,3393.51 2853.5,3421.5C 2828.96,3443.44 2800.63,3458.61 2768.5,3467C 2741.5,3472.8 2716.17,3468.8 2692.5,3455C 2675.6,3440.26 2670.44,3422.09 2677,3400.5C 2683.11,3386.72 2692.94,3376.56 2706.5,3370C 2717.77,3364.35 2729.43,3359.69 2741.5,3356C 2777.16,3347.03 2813.16,3340.86 2849.5,3337.5 Z"/></g>
<g><path style="opacity:1" fill="#8e8c8c" d="M 2329.5,3452.5 C 2327.17,3452.5 2324.83,3452.5 2322.5,3452.5C 2322.5,3456.17 2322.5,3459.83 2322.5,3463.5C 2321.52,3459.7 2321.18,3455.7 2321.5,3451.5C 2324.39,3451.19 2327.05,3451.53 2329.5,3452.5 Z"/></g>
</svg>
